<?xml version="1.0" encoding="UTF-8"?>
<!DOCTYPE svg PUBLIC "-//W3C//DTD SVG 1.1//EN" "http://www.w3.org/Graphics/SVG/1.1/DTD/svg11.dtd">
<!-- Creator: CorelDRAW 2017 -->
<svg xmlns="http://www.w3.org/2000/svg" xml:space="preserve" width="132.933mm" height="34.3446mm" version="1.1" style="shape-rendering:geometricPrecision; text-rendering:geometricPrecision; image-rendering:optimizeQuality; fill-rule:evenodd; clip-rule:evenodd"
viewBox="0 0 12550 3242"
 xmlns:xlink="http://www.w3.org/1999/xlink">
 <defs>
  <style type="text/css">
   <![CDATA[
    .fil0 {fill:#0E9042}
    .fil3 {fill:#2B2A29;fill-rule:nonzero}
    .fil2 {fill:#E31E24;fill-rule:nonzero}
    .fil1 {fill:#DF252A;fill-rule:nonzero}
   ]]>
  </style>
 </defs>
 <g id="Layer_x0020_1">
  <metadata id="CorelCorpID_0Corel-Layer"/>
  <g id="_2513295234704">
   <polygon class="fil0" points="0,974 383,974 383,607 0,607 "/>
   <polygon class="fil0" points="0,1573 383,1573 383,1207 0,1207 "/>
   <polygon class="fil0" points="0,2146 383,2146 383,1780 0,1780 "/>
   <polygon class="fil0" points="689,974 1072,974 1072,607 689,607 "/>
   <polygon class="fil0" points="689,1573 1072,1573 1072,1207 689,1207 "/>
   <polygon class="fil0" points="689,2146 1072,2146 1072,1780 689,1780 "/>
   <polygon class="fil0" points="1355,974 1739,974 1739,607 1355,607 "/>
   <polygon class="fil0" points="1355,1573 1739,1573 1739,1207 1355,1207 "/>
   <polygon class="fil0" points="1355,2146 1739,2146 1739,1780 1355,1780 "/>
   <polygon class="fil0" points="0,366 383,366 383,0 0,0 "/>
  </g>
  <g id="_2513295252432">
   <path class="fil1" d="M3124 1853c74,0 132,-13 174,-40 42,-27 63,-68 63,-125l0 -4c0,-50 -19,-91 -58,-120 -39,-30 -102,-44 -189,-44l-386 0 0 334 397 0zm-89 -611c74,0 132,-13 176,-38 43,-25 65,-66 65,-123l0 -4c0,-51 -19,-89 -56,-116 -38,-27 -92,-40 -163,-40l-330 0 0 321 308 0zm-633 -614l703 0c175,0 307,45 396,134 69,69 104,155 104,258l0 4c0,43 -6,82 -16,115 -11,33 -25,63 -43,90 -18,27 -39,50 -62,70 -24,20 -49,38 -76,52 88,33 157,78 207,136 50,57 75,136 75,237l0 4c0,69 -13,130 -40,182 -27,52 -65,96 -115,130 -50,35 -109,61 -180,78 -70,17 -147,26 -232,26l-721 0 0 -1518z"/>
   <path class="fil1" d="M4710 1864c67,0 128,-12 184,-37 56,-24 105,-58 145,-102 40,-43 71,-94 93,-151 22,-57 33,-118 33,-183l0 -4c0,-65 -11,-126 -33,-184 -23,-58 -54,-108 -96,-152 -41,-43 -90,-78 -146,-103 -56,-25 -118,-38 -184,-38 -68,0 -130,12 -185,37 -56,25 -103,59 -143,102 -40,43 -71,94 -93,151 -22,57 -34,118 -34,183l0 4c0,65 11,126 34,184 22,58 55,108 95,152 41,43 89,78 145,103 56,26 117,38 185,38zm-5 308c-117,0 -225,-20 -323,-62 -98,-41 -183,-97 -255,-167 -72,-70 -127,-153 -167,-247 -40,-95 -60,-196 -60,-305l0 -4c0,-108 20,-210 61,-305 40,-95 97,-178 168,-249 72,-72 157,-128 256,-169 99,-41 207,-62 324,-62 117,0 225,21 323,62 98,41 183,97 255,167 71,70 127,152 167,247 40,95 59,196 59,305l0 4c0,108 -20,210 -61,305 -40,94 -96,178 -168,249 -72,71 -157,128 -256,169 -99,41 -207,62 -324,62z"/>
   <polygon class="fil1" points="5811,628 6119,628 6830,1563 6830,628 7160,628 7160,2146 6876,2146 6141,1181 6141,2146 5811,2146 "/>
   <polygon class="fil1" points="7878,936 7416,936 7416,628 8673,628 8673,936 8212,936 8212,2146 7878,2146 "/>
   <polygon class="fil1" points="10772,628 11080,628 11792,1563 11792,628 12121,628 12121,2146 11837,2146 11102,1181 11102,2146 10772,2146 "/>
   <path class="fil1" d="M9682 1864c67,0 128,-12 185,-37 56,-24 104,-58 144,-102 40,-43 71,-94 93,-151 22,-57 34,-118 34,-183l0 -4c0,-65 -12,-126 -34,-184 -22,-58 -54,-108 -95,-152 -41,-43 -90,-78 -146,-103 -56,-25 -118,-38 -184,-38 -68,0 -130,12 -185,37 -56,25 -104,59 -143,102 -40,43 -71,94 -93,151 -23,57 -34,118 -34,183l0 4c0,65 11,126 34,184 22,58 54,108 95,152 41,43 89,78 145,103 56,26 117,38 185,38zm-4 308c-117,0 -225,-20 -323,-62 -99,-41 -183,-97 -255,-167 -72,-70 -127,-153 -167,-247 -40,-95 -60,-196 -60,-305l0 -4c0,-108 20,-210 61,-305 41,-95 97,-178 168,-249 72,-72 157,-128 256,-169 99,-41 207,-62 324,-62 117,0 225,21 323,62 98,41 183,97 255,167 72,70 127,152 167,247 40,95 60,196 60,305l0 4c0,108 -20,210 -61,305 -40,94 -96,178 -168,249 -72,71 -157,128 -256,169 -99,41 -207,62 -324,62z"/>
  </g>
  <path class="fil2" d="M12373 478c52,0 94,17 127,51 33,34 50,75 50,121 0,48 -17,88 -51,122 -34,34 -75,51 -122,51 -48,0 -89,-17 -122,-51 -34,-34 -51,-75 -51,-122 0,-34 9,-64 27,-92 18,-28 40,-48 67,-61 27,-13 52,-19 75,-19zm9 34c-42,0 -77,14 -103,42 -26,28 -40,60 -40,97 0,38 14,71 41,98 27,27 60,41 98,41 38,0 71,-14 98,-41 27,-27 41,-60 41,-98 0,-26 -7,-51 -21,-73 -14,-22 -31,-39 -53,-50 -21,-11 -42,-17 -62,-17zm-80 232l0 -184 87 0c21,0 37,5 47,15 10,10 15,22 15,37 0,14 -4,25 -12,34 -8,9 -21,14 -37,17 8,3 14,7 18,12 4,5 11,15 21,32l22 37 -46 0 -15 -30c-9,-18 -17,-30 -24,-36 -7,-6 -16,-10 -27,-10l-10 0 0 75 -37 0zm37 -105l30 0c15,0 26,-2 32,-6 6,-4 10,-10 10,-20 0,-8 -3,-14 -9,-18 -6,-4 -16,-6 -29,-6l-34 0 0 50z"/>
  <g id="_2513295253808">
   <path class="fil3" d="M2811 3242c-62,0 -120,-11 -173,-34 -53,-22 -99,-53 -138,-93 -39,-39 -69,-85 -91,-139 -22,-53 -33,-110 -33,-171l0 -2c0,-60 11,-117 33,-170 22,-53 52,-99 91,-139 39,-40 85,-71 139,-94 54,-23 114,-34 179,-34 39,0 76,3 108,10 33,7 62,15 89,27 26,11 51,25 74,41 23,16 44,34 63,53l-118 137c-33,-30 -67,-53 -101,-70 -34,-17 -73,-25 -116,-25 -35,0 -68,7 -98,21 -30,14 -56,33 -78,57 -22,24 -39,52 -51,84 -12,32 -18,66 -18,102l0 2c0,36 6,71 18,103 12,32 29,60 50,85 22,24 47,43 78,58 30,14 63,21 100,21 49,0 90,-9 123,-27 33,-18 66,-42 100,-72l119 120c-22,23 -44,45 -68,63 -23,18 -49,34 -77,48 -28,13 -58,23 -91,30 -33,7 -70,10 -111,10z"/>
   <path class="fil3" d="M4761 2874l-112 -275 -113 275 225 0zm-196 -499l172 0 363 853 -195 0 -77 -190 -358 0 -77 190 -190 0 363 -853z"/>
   <path class="fil3" d="M6601 3065c41,0 73,-7 97,-22 23,-15 35,-38 35,-69l0 -2c0,-28 -11,-51 -33,-67 -22,-17 -57,-25 -106,-25l-215 0 0 186 221 0zm-50 -341c41,0 74,-7 98,-21 24,-14 36,-37 36,-68l0 -2c0,-28 -10,-50 -31,-65 -21,-15 -51,-22 -91,-22l-184 0 0 179 172 0zm-353 -343l393 0c98,0 171,25 221,75 39,39 58,87 58,144l0 2c0,24 -3,46 -9,64 -6,19 -14,35 -24,50 -10,15 -22,28 -35,40 -13,11 -27,21 -43,29 49,18 87,44 115,76 28,32 42,76 42,133l0 2c0,39 -7,73 -22,102 -15,29 -36,53 -64,72 -28,19 -61,34 -100,44 -39,10 -82,14 -130,14l-402 0 0 -847z"/>
   <polygon class="fil3" points="7957,2381 8144,2381 8144,3060 8566,3060 8566,3228 7957,3228 "/>
   <polygon class="fil3" points="9757,2381 10394,2381 10394,2547 9940,2547 9940,2719 10340,2719 10340,2884 9940,2884 9940,3062 10400,3062 10400,3228 9757,3228 "/>
   <path class="fil3" d="M11837 3240c-64,0 -128,-11 -190,-33 -62,-22 -119,-56 -170,-102l110 -132c39,31 79,57 119,75 41,19 85,28 134,28 39,0 69,-7 90,-21 21,-14 32,-34 32,-59l0 -2c0,-12 -2,-23 -7,-32 -4,-9 -13,-18 -26,-26 -12,-8 -30,-16 -52,-24 -22,-8 -51,-17 -87,-26 -43,-10 -82,-22 -117,-35 -35,-13 -64,-29 -88,-48 -24,-19 -43,-42 -57,-71 -13,-28 -20,-64 -20,-105l0 -2c0,-39 7,-74 22,-105 14,-31 34,-58 61,-80 26,-23 57,-40 93,-52 36,-12 76,-18 119,-18 62,0 119,9 171,28 52,19 100,45 144,80l-97 140c-38,-26 -75,-46 -111,-61 -36,-15 -72,-22 -109,-22 -36,0 -63,7 -82,21 -18,14 -27,32 -27,53l0 2c0,14 3,26 8,36 5,10 15,19 29,27 14,8 32,16 56,23 24,7 54,16 90,25 43,11 81,24 114,38 34,14 62,31 85,51 23,20 40,43 52,70 12,26 18,58 18,96l0 2c0,42 -7,79 -23,112 -16,33 -37,60 -64,82 -27,22 -60,39 -97,51 -38,12 -80,18 -126,18z"/>
  </g>
 </g>
</svg>
